<svg version="1.2" xmlns="http://www.w3.org/2000/svg" viewBox="0 0 1024 443" width="1024" height="443">
	<style>
		.s0 { fill: #000000 } 
		.s1 { fill: #ffde00 } 
	</style>
	<g id="Background">
		<path id="Path 0" fill-rule="evenodd" class="s0" d="m754 47.47c10 0.21 14.9 0.78 18.9 2.16 2.97 1.03 7.2 3.45 9.42 5.37 2.21 1.92 4.62 4.96 5.35 6.75 0.73 1.79 1.33 5.84 1.34 9 0.01 3.16-0.64 8-1.44 10.75-1.08 3.74-2.78 6.28-6.76 10.08-2.92 2.8-7 5.61-9.06 6.25-2.24 0.7-4.45 0.82-5.5 0.31-0.96-0.47-2.78-2.16-4.03-3.75-1.26-1.59-2.27-4.13-2.25-5.64 0.02-1.87-0.69-3.11-2.22-3.88-1.24-0.63-6.52-1.35-11.75-1.6-5.23-0.25-12.2 0.06-15.5 0.69-3.3 0.63-8.48 1.51-11.5 1.96-3.02 0.45-8.87 1.82-13 3.04-4.12 1.22-13.12 4.83-20 8.01-6.87 3.19-13.29 6.08-14.25 6.42-0.96 0.33-1.74 1.17-1.73 1.86 0 0.69 0.34 1.72 0.75 2.3 0.4 0.57 2.31 2.14 4.23 3.47 1.92 1.33 6.2 4.7 9.5 7.48 3.3 2.78 10.95 8.03 17 11.65 6.05 3.63 15.5 8.98 21 11.9 5.5 2.92 14.73 7.98 20.5 11.24 5.77 3.27 13.88 8.56 18 11.77 4.13 3.21 9.35 8.23 11.61 11.14 2.26 2.92 5.07 7.21 6.25 9.55 1.18 2.34 2.59 6.72 3.14 9.75 0.65 3.58 0.66 6.81 0.03 9.25-0.61 2.38-2.72 5.44-5.75 8.37-2.63 2.54-8.72 7.83-13.53 11.75-5.22 4.26-10.46 7.63-13 8.38-2.9 0.85-11.54 1.22-27.25 1.16-19.92-0.07-25.27-0.45-40-2.81-9.35-1.49-20.15-3.16-24-3.7-5.72-0.81-7.41-1.49-9.25-3.7-1.78-2.15-2.23-3.92-2.21-8.7 0.02-3.3 0.58-6.92 1.25-8.04 0.66-1.13 2.34-3.53 3.71-5.35 1.38-1.82 5.2-5.34 14.5-12.34l7.64 0.37c5.18 0.24 8.23 0.88 9.5 1.98 1.02 0.89 4.78 2.11 8.36 2.71 3.58 0.6 9.42 1.55 13 2.11 3.58 0.56 13.02 1.33 21 1.7 13.83 0.65 14.43 0.6 13-1.09-0.83-0.98-5.33-4.13-10-6.99-4.67-2.87-13.9-8.05-20.5-11.52-6.6-3.47-17.4-9.38-24-13.12-6.6-3.75-15.78-9.88-20.41-13.62-4.63-3.74-9.8-8.83-14.59-15.8l-0.7 10c-0.38 5.5-1.69 14.28-2.9 19.5-1.41 6.1-4 13.08-7.23 19.5-4.29 8.54-6.42 11.4-14.6 19.58-5.26 5.27-11.82 10.81-14.57 12.32-2.75 1.5-7.7 3.64-11 4.76-4.6 1.55-8.58 2.02-17 2.02-7.95-0.01-12.66-0.53-17-1.88-3.3-1.04-8.02-3.05-10.5-4.48-2.48-1.44-6.96-5.24-9.97-8.46-3.28-3.51-6.77-8.67-8.69-12.86-1.76-3.85-4.34-11.5-5.72-17-1.38-5.5-3.19-13.82-4.01-18.5-0.82-4.68-1.76-14.13-2.09-21-0.32-6.88-0.89-14.75-1.92-22.5l-0.72 7c-0.39 3.85-1.42 12.29-2.29 18.75-0.88 6.46-1.59 15.46-1.6 20 0 4.54-0.67 12.75-1.49 18.25-0.82 5.5-2.36 12.93-3.42 16.5-1.14 3.85-3.5 8.54-5.8 11.5-2.13 2.75-5.65 6.1-7.83 7.44-2.17 1.34-5.75 2.62-7.95 2.84-2.6 0.26-6.09-0.4-10-1.9-3.35-1.28-7.54-3.86-9.5-5.84-1.93-1.95-14.07-17.17-50.5-64.12l-0.77 5.79c-0.43 3.18-0.31 12.32 0.25 20.29 0.57 7.97 1.76 17.2 2.64 20.5 0.89 3.3 1.82 6.9 2.07 8 0.25 1.1-0.48 4.14-1.62 6.75-1.14 2.61-3.76 6.58-5.82 8.81-2.06 2.23-5.55 4.74-7.75 5.57-3.17 1.21-4.88 1.3-8.25 0.44-2.59-0.65-5.91-2.64-12.75-9.11l-3.5 3.46c-1.93 1.9-4.85 4.14-6.5 4.96-2.73 1.36-3.45 1.32-8-0.46-4.22-1.65-7.2-1.93-19-1.77-11.85 0.15-14.68-0.12-18.42-1.74-2.42-1.05-5.37-3.03-6.54-4.41-1.17-1.37-2.33-3.14-2.58-3.92-0.37-1.15-1.52-0.93-5.96 1.12-3.02 1.4-8.43 3.5-12 4.66-3.57 1.17-10.55 3.02-15.5 4.11-4.95 1.1-15.3 2.5-23 3.11-7.7 0.62-18.05 0.83-23 0.48-5.26-0.38-10.43-1.36-12.43-2.35-1.88-0.94-4.29-2.83-5.35-4.21-1.85-2.41-1.88-3.59-0.87-33 0.88-25.72 1.45-32.61 3.63-44 1.42-7.43 4.07-19.58 5.88-27 1.81-7.42 4.84-16.82 6.72-20.88 2.19-4.72 5.04-8.9 7.92-11.6 3.33-3.12 5.93-4.55 10-5.5 3.02-0.7 7.19-1 9.25-0.65 2.8 0.47 4.26 1.46 5.75 3.88 1.38 2.25 1.99 5.01 2 9 0 4.06-1.03 8.61-3.51 15.5-1.93 5.36-5.12 16.95-7.09 25.75-1.97 8.8-4.22 19.6-4.99 24-0.77 4.4-1.41 11.49-1.41 15.75 0 7.1 0.24 8.02 2.85 11 1.83 2.08 4.97 3.97 8.75 5.25 4.72 1.6 8.51 2 18.9 1.99 8.21-0.01 16.87-0.7 23.5-1.88 9.5-1.68 10.74-1.72 13-0.33 1.38 0.84 3.18 2.94 4 4.67 0.82 1.72 1.5 3.13 1.5 3.12 0 0 1.35-0.68 3-1.5 1.65-0.82 5.02-1.76 12-2.69l-0.3-16.69c-0.16-9.18-1.22-25.24-2.35-35.69-1.13-10.45-1.89-21.13-1.35-28.48l-11.25-0.01c-7.76-0.01-12.34-0.48-14.75-1.51-2.89-1.24-3.5-2.02-3.5-4.5 0-1.65 1.24-5.1 2.75-7.67 1.51-2.57 5-6.65 7.75-9.05 2.75-2.41 7.02-5.04 9.5-5.84 2.48-0.8 8.32-1.89 13-2.43 4.68-0.54 15.48-1.28 24-1.65 8.52-0.37 16.63-0.41 18-0.08 1.38 0.32 3.06 1.74 3.75 3.15 0.69 1.41 1.26 3.81 1.26 5.32 0.01 1.97-1.33 4.06-4.75 7.4-2.62 2.56-7.57 6.05-11.01 7.75-3.44 1.71-6.42 3.66-6.64 4.35-0.21 0.69-0.2 6.65 0.03 13.25 0.22 6.6 0.87 21.45 1.42 33 0.56 11.55 1.5 24.15 2.09 28 0.6 3.85 1.48 7.79 1.97 8.75 0.48 0.96 2 1.75 3.38 1.75 1.9 0 2.38-0.42 2.01-1.75-0.28-0.96-1.18-5.24-2-9.5-0.83-4.26-1.51-12.03-1.51-17.25 0-5.22 0.71-12.99 1.57-17.25 0.87-4.26 3.49-11.8 5.82-16.75 2.91-6.16 6.12-11.01 10.18-15.38 3.26-3.52 8.18-7.67 10.93-9.24 3.64-2.08 6.36-2.87 10-2.88 3.78-0.02 6.1 0.66 9.5 2.79 2.48 1.55 7.65 5.96 11.5 9.79 3.85 3.84 13.98 15.92 22.5 26.84 8.52 10.92 15.84 20.02 16.25 20.22 0.41 0.2 0.64-11.9 0.5-26.89-0.21-23.21 0-28.07 1.44-32.75 1.25-4.1 3.29-7.25 8-12.38 3.47-3.79 8.11-7.78 10.31-8.87 2.92-1.46 5.21-1.85 8.5-1.48 3.98 0.46 5.14 1.24 15.5 12.75l5-4.82c3.38-3.26 6.78-5.41 10.5-6.64 4.86-1.61 6.14-1.68 11-0.54 3.16 0.74 6.46 2.29 10 5.98l-0.64 30.25c-0.54 25.84-0.38 31.93 1.1 41.75 0.95 6.32 2.81 14.65 4.14 18.5 1.32 3.85 3.68 8.57 5.25 10.5 1.56 1.93 4.37 4.51 6.24 5.75 1.88 1.24 5.66 2.54 8.41 2.88 3.14 0.39 6.66 0.11 9.47-0.75 3.42-1.06 5.35-2.55 8.24-6.38 2.07-2.75 5.08-7.7 6.7-11 1.61-3.3 3.63-8.7 4.48-12 0.85-3.3 2.08-10.72 2.73-16.5 0.92-8.07 0.92-13.28 0.02-22.5-0.65-6.6-2.03-15.6-3.08-20-1.61-6.83-1.7-8.44-0.59-11 0.72-1.65 3.49-5.13 6.17-7.73 4.14-4.03 5.74-4.89 10.86-5.81 3.3-0.6 7.35-0.78 9-0.42 1.65 0.37 4.23 1.86 5.74 3.32 2.13 2.06 2.96 4.13 3.75 9.39 0.56 3.71 1.12 6.77 1.26 6.79 0.14 0.02 2.55-3.02 5.37-6.75 2.81-3.73 7.54-8.85 10.5-11.36 2.96-2.51 7.4-5.95 9.88-7.65 2.48-1.69 9-5.33 14.5-8.07 5.5-2.75 13.15-6.12 17-7.49 3.85-1.38 12.17-3.65 18.5-5.05 6.33-1.4 12.85-2.76 14.5-3.02 1.65-0.26 9.08-0.34 16.5-0.18zm-140.5 179.94c1.65 0.2 4.58 1.02 10 3.28l1 48.4c0.55 26.63 0.98 55.61 0.95 64.41-0.04 10.91-0.49 17.27-1.44 20-0.76 2.2-2.99 5.76-4.95 7.91-1.96 2.16-5.36 5.21-7.56 6.78-2.24 1.61-5.32 2.87-7 2.88-2.19 0.02-3.96-1-6.56-3.77-1.96-2.09-4.21-5.6-5-7.8-1-2.77-1.44-8.39-1.44-32.5l-7.5 0.02c-4.12 0.01-14.02 0.88-22 1.92-8.18 1.08-16.9 1.67-25.5 0.81l-0.68 4.37c-0.37 2.41-1.25 12.48-3.2 40.38l-9.12 9.46-8.67 0.27c-4.77 0.15-9.04-0.11-9.5-0.57-0.46-0.47-1.13-3.39-1.5-6.5-0.36-3.11-0.7-8.02-0.83-16.16l-5.25 5.32c-4.4 4.46-6.71 5.85-14.25 8.59-4.95 1.8-13.73 4.35-19.5 5.68-6.54 1.5-16.53 2.78-26.5 3.39-8.8 0.55-19.6 0.64-24 0.21-4.51-0.44-9.2-1.52-10.75-2.49-1.51-0.93-3.3-2.71-3.96-3.95-0.67-1.24-1.46-4.38-2.29-11.72l-4.5 3.51c-3.05 2.38-8.05 4.64-15.5 7-6.05 1.93-14.6 4.19-19 5.03-4.4 0.84-14.52 1.96-22.5 2.48-9.08 0.6-17.86 0.6-23.5 0.01-6.46-0.67-9.78-1.52-14.5-5.06l-13.75 2.4c-7.56 1.32-18.93 2.94-25.25 3.6-6.67 0.7-19.48 1.02-30.5 0.78-15.94-0.35-19.71-0.73-23.43-2.35-2.8-1.22-5.67-3.59-11.13-10.93l0.04-14.5c0.02-7.98-0.19-15.96-0.98-21l-7.25 0.66c-5.49 0.5-8.59 0.25-12.75-1.04-5.5-1.7-5.5-1.7-6.98 0.59-0.81 1.26-4.47 5.67-8.12 9.79-3.65 4.13-9.51 10.22-13.02 13.54-3.51 3.32-9.08 8.12-12.38 10.65-3.3 2.54-9.37 6.22-13.5 8.18-4.12 1.95-10.2 3.97-13.5 4.47-3.3 0.5-8.25 0.62-11 0.26-2.75-0.36-7.7-1.95-11-3.53-4.11-1.98-8.52-5.45-14-11.01-4.4-4.47-9.46-10.59-11.24-13.6-1.79-3-4.44-8.38-5.89-11.96-1.87-4.58-2.8-9.01-3.15-15-0.34-5.83 0.01-10.86 1.14-16 0.89-4.12 3.37-11.1 5.5-15.5 2.13-4.4 5.88-10.7 8.34-14 2.45-3.3 6.9-8.65 9.88-11.89 2.98-3.24 8.8-8.68 12.92-12.08 4.13-3.41 10.2-8.02 13.5-10.25 3.3-2.23 10.72-6.4 16.5-9.25 10.09-5 10.75-5.18 17-4.71 6.19 0.47 6.68 0.7 10.25 4.83 2.06 2.39 3.75 5.25 3.76 6.35 0.01 1.1-1.9 3.83-4.25 6.07-2.34 2.24-9.66 7.14-16.26 10.89-6.6 3.75-15.6 9.17-20 12.05-4.4 2.88-9.96 7.2-12.36 9.61-2.4 2.41-5.63 6.18-7.17 8.38-1.54 2.2-4.06 7.15-5.58 11-2.43 6.11-2.79 8.4-2.84 18-0.05 10.13 0.16 11.36 2.58 15.5 1.45 2.48 4.6 6.33 7 8.57 2.46 2.28 7 5.06 10.37 6.35 4.78 1.82 7.22 2.16 12 1.72 3.51-0.33 8.29-1.69 11.5-3.27 3.16-1.56 8.26-5.51 12-9.31 3.57-3.63 8.42-9.52 10.78-13.08 2.35-3.57 4.26-6.82 4.25-7.23-0.02-0.41-2.39-1.22-5.28-1.8-2.89-0.58-8.62-1.48-12.75-2.01-4.12-0.52-14.85-1.29-23.83-1.7-15.83-0.72-16.4-0.82-18.3-3.24-1.07-1.37-1.94-3.96-1.91-5.75 0.03-2.5 1.13-4.36 4.79-8.07 3.05-3.1 6.72-5.57 10.25-6.92 3.03-1.15 10.22-2.58 16-3.18 5.78-0.6 17.47-1.1 26-1.1 8.53 0 17.97 0.46 21 1.03 3.93 0.74 6.36 1.89 8.5 4.05 2.15 2.17 3.31 4.65 4.09 8.73 1.07 5.63 1.15 5.73 5.71 7.21 2.55 0.83 4.98 1.13 5.41 0.67 0.44-0.45 0.22-9.68-0.47-20.5-1.02-15.91-1.02-20.63 0.02-24.67 0.7-2.75 3.06-7.44 5.26-10.42 2.19-2.98 5.78-6.86 7.98-8.63 2.2-1.76 5.91-4.16 8.25-5.33 2.34-1.17 6.84-2.81 10-3.64 3.16-0.84 14.07-1.99 24.25-2.56 10.18-0.57 20.52-0.76 23-0.43 2.48 0.34 6.07 1.11 8 1.7 1.93 0.6 4.74 1.93 6.25 2.95 1.57 1.06 3.22 3.47 3.85 5.61 0.99 3.4 0.8 4.31-2.1 9.75-1.75 3.3-4.61 7.47-6.34 9.27-1.74 1.8-5.18 3.92-7.66 4.7-2.48 0.79-7.2 2.12-10.5 2.96-3.3 0.84-10.72 2.24-16.5 3.11-5.78 0.88-11.08 2.13-11.79 2.78-0.86 0.78-1.28 3.75-1.24 8.68 0.04 4.13 0.62 9.26 1.3 11.41 0.67 2.15 2.24 4.51 3.48 5.25 2.01 1.2 3.33 0.88 12.5-3.04 5.64-2.41 13.4-5.33 17.25-6.48 3.85-1.16 9.59-2.12 12.75-2.12 3.16-0.01 7.1 0.66 8.75 1.48 1.83 0.92 3.42 2.76 4.07 4.75 0.82 2.5 0.71 4.57-0.5 9-1.12 4.11-2.78 7.03-10.07 14.77l-17.5 4.12c-9.62 2.26-21.22 5.29-34.04 9.36l0.05 4c0.03 2.24 1.03 5.66 2.27 7.78 1.26 2.14 3.74 4.48 5.72 5.39 2.82 1.3 5.26 1.48 12.5 0.92 4.95-0.38 13.5-1.35 19-2.16 5.5-0.81 14.27-1.8 29-2.93l0.6-15c0.39-9.79 1.57-20.21 3.38-30 1.53-8.25 4.3-21.07 6.15-28.5 1.85-7.42 4.74-16.42 6.42-20 1.68-3.57 4.72-8.22 6.76-10.33 2.03-2.11 5.04-4.55 6.69-5.42 1.81-0.96 5.66-1.62 9.72-1.67 5.72-0.07 7.05 0.26 9 2.2 1.83 1.83 2.35 3.63 2.62 9 0.29 5.7-0.2 8.25-3.22 16.72-1.96 5.5-4.67 14.73-6.02 20.5-1.35 5.78-3.61 16.46-5.03 23.75-1.44 7.44-2.57 16.76-2.57 21.25 0 7.31 0.24 8.26 2.75 11.08 1.52 1.7 5.21 3.97 8.25 5.08 3.26 1.2 9.17 2.22 14.5 2.52 4.95 0.28 12.38 0.06 16.5-0.5 4.13-0.56 11.66-1.61 26.01-3.68l-0.01-9.75c0-5.36 0.66-14.14 1.46-19.5 0.8-5.36 2.83-16.5 4.51-24.75 1.67-8.25 3.74-17.47 4.6-20.5 0.85-3.02 2.47-7.97 3.58-11 1.12-3.02 2.84-7.07 3.83-9 0.98-1.92 3.75-5.34 6.15-7.59 3.2-3 5.85-4.44 9.87-5.38 3.02-0.71 7.07-1.02 9-0.7 1.93 0.33 4.4 1.57 5.5 2.74 1.49 1.6 2.08 3.84 2.33 8.79 0.23 4.72-0.26 8.37-1.7 12.64-1.11 3.3-2.9 8.48-3.98 11.5-1.08 3.03-3.87 14.28-6.19 25-2.84 13.06-4.4 22.97-4.73 30-0.48 10.44-0.47 10.52 2.39 13.83 1.67 1.92 5.2 4.21 8.38 5.44 4.54 1.74 7.76 2.12 18.5 2.17 8.69 0.04 16.87-0.6 36.34-3.94l2.09 2c1.14 1.1 2.26 1.78 2.49 1.5 0.22-0.27 0.54-4.55 0.71-9.5 0.31-8.92 0.29-9-2.16-9.31-1.36-0.17-4.58 0.51-7.17 1.5-4.24 1.63-4.96 1.66-7.41 0.31-1.54-0.85-3.72-3.66-5.04-6.5-1.28-2.75-2.33-6.01-2.34-7.25-0.01-1.24 0.71-3.71 1.6-5.5 0.88-1.79 3.92-5.65 6.75-8.58 2.83-2.93 6.38-5.96 7.89-6.75 1.51-0.78 3.76-1.42 5-1.41 2.08 0.01 2.31-0.59 3-7.75 0.42-4.27 0.76-16.42 0.75-27.01 0-14.18 0.36-20.11 1.39-22.5 0.76-1.79 3.35-5.14 5.75-7.44 2.4-2.31 5.6-4.67 7.11-5.25 1.51-0.58 4.44-1.06 6.5-1.06 2.06 0.01 5.21 0.91 7 2 1.79 1.1 3.81 3.14 4.5 4.54 0.94 1.9 0.98 3.35 0.17 5.75-0.72 2.16-0.89 12.12 0.08 57.71l3-0.02c1.65-0.01 5.92-0.5 9.5-1.08 3.58-0.58 13.25-1.45 21.5-1.93 8.25-0.49 16.58-1.15 18.5-1.49 2.95-0.5 3.6-1.1 4.14-3.79 0.36-1.75 1.46-10.39 4.26-35.19l-2.2-9c-1.2-4.95-2.2-9.67-2.21-10.5-0.01-0.82 1.9-3.42 4.25-5.76 2.48-2.48 6.13-4.87 8.76-5.73 2.48-0.81 5.85-1.3 7.5-1.1zm81.5 17.92c6.98 0.25 9.57 0.83 14.49 3.24 3.53 1.73 8.68 5.6 12.54 9.43 3.61 3.58 8.18 8.98 10.15 12 1.98 3.03 4.96 8.2 6.62 11.5 1.67 3.3 3.81 8.48 4.76 11.5 0.95 3.03 2.12 5.95 2.6 6.5 0.53 0.61 0.87 0.02 0.87-1.5 0-1.37 1.25-6.1 2.78-10.5 1.53-4.4 4.75-10.92 7.16-14.5 2.41-3.57 7.34-9.33 10.96-12.79 3.61-3.45 9.49-7.8 13.07-9.66 3.58-1.85 9.42-3.93 13-4.61 3.58-0.68 8.98-1 12-0.72 3.02 0.28 7.08 1.31 9 2.29 1.92 0.98 6.2 4.54 9.5 7.91 3.3 3.37 7.24 8.7 8.75 11.85 1.51 3.15 3.13 7.64 3.6 9.98 0.46 2.34 0.53 6.73 0.15 9.75-0.39 3.03-1.81 7.98-3.18 11-1.36 3.03-5.14 8.37-8.4 11.87-3.25 3.51-10.09 9.58-15.18 13.5-5.09 3.92-9.14 7.2-9 7.29 0.14 0.09 8.13 5.81 17.76 12.72 9.62 6.9 17.6 12.46 17.72 12.34 0.12-0.12-0.5-3.59-1.37-7.72-0.97-4.53-1.59-12.25-1.58-19.5 0.02-9.09 0.55-13.94 2.18-20 1.18-4.4 4.03-11.6 6.34-16 2.7-5.16 6.41-10.22 10.45-14.25 3.44-3.44 8.17-7.14 10.51-8.23 2.34-1.09 6.27-1.98 8.75-1.99 3.15-0.01 6.01 0.85 9.5 2.86 2.75 1.58 8.83 6.87 13.5 11.75 4.67 4.89 14.8 17.09 36.5 45.34l0.56-28.74c0.47-23.84 0.86-29.51 2.29-33.24 1.07-2.79 4.28-7.1 8.44-11.32 3.69-3.76 7.95-7.47 9.46-8.25 1.51-0.79 4.44-1.43 6.5-1.43 2.06 0.01 5.21 0.91 7 2 1.79 1.1 5.16 4.54 11.75 13.31l-1.3 20.1c-0.72 11.05-1.94 24.59-2.72 30.09-0.77 5.5-1.69 16.3-2.04 24-0.35 7.7-1.53 18.5-2.61 24-1.09 5.5-2.83 12.02-3.87 14.5-1.05 2.48-4.28 6.8-7.18 9.61-3.47 3.36-6.82 5.57-9.78 6.44-3.62 1.06-5.38 1.08-9 0.1-2.48-0.68-6.5-2.45-8.94-3.94-3.38-2.06-10.45-10.41-29.5-34.83-13.78-17.66-25.4-31.95-25.81-31.75-0.41 0.2-0.75 5.21-0.76 11.12 0 5.91 0.45 15.25 1.01 20.75 0.56 5.5 1.85 12.93 2.88 16.5 1.81 6.3 1.81 6.65 0.05 11.5-1.26 3.44-3.55 6.64-7.38 10.25-3.74 3.54-6.45 5.29-8.3 5.36-1.51 0.06-3.88 0.02-5.25-0.1-1.38-0.12-3.4-0.67-4.5-1.23-1.1-0.56-3.69-2.65-5.75-4.65-2.89-2.79-3.99-4.85-4.75-8.88-0.55-2.89-1.34-5.24-1.75-5.22-0.41 0.02-2.33 1.91-4.25 4.19-1.92 2.29-5.52 5.43-8 6.98-3.21 2.02-5.79 2.83-9 2.83-3.26 0-5.74-0.8-9-2.9-2.48-1.59-9.7-7.79-16.06-13.76-6.36-5.98-12.58-11.77-16.1-14.87l0.66 24.48-4.5 4.43c-2.6 2.56-7.03 5.48-10.5 6.92-3.64 1.5-6.59 2.17-7.5 1.7-0.83-0.43-3.41-3.32-10-12.03l-0.5-38.5-3.25 5.75c-1.79 3.16-6.29 8.95-10 12.86-3.71 3.91-9.67 9.27-13.25 11.91-3.58 2.64-9.88 6.61-14 8.83-4.13 2.22-11.55 5.4-16.5 7.06-5.1 1.72-12.9 3.42-18 3.94-6.17 0.62-10.75 0.55-14.56-0.22-3.05-0.62-7.21-2.37-9.25-3.88-2.03-1.51-5.24-5.11-7.14-8-1.9-2.89-4.79-9.3-6.42-14.25-1.81-5.5-3.41-13.28-4.11-20-0.63-6.05-0.87-14.37-0.52-18.5 0.35-4.12 1.27-11.1 2.04-15.5 0.78-4.4 2.49-11.15 3.8-15 1.3-3.85 3.84-9.92 5.64-13.5 1.79-3.57 5.17-9.2 7.5-12.5 2.34-3.3 7.13-8.7 10.64-12 3.51-3.3 8.97-7.46 12.13-9.25 3.16-1.79 8.11-3.92 11-4.74 3.35-0.95 8.33-1.38 13.75-1.18zm87.08 39.27c-1.88 1.59-4.01 4.36-4.75 6.15-0.73 1.79-1.33 6.18-1.33 9.75 0 3.58 0.23 7.18 0.5 8 0.27 0.83 1.4 1.5 2.5 1.5 1.1 0 4.14-0.8 6.75-1.77 2.61-0.98 6.55-3.17 8.75-4.87 2.2-1.7 5.28-4.84 6.83-6.98 2.11-2.89 2.69-4.58 2.25-6.63-0.32-1.51-1.71-4.55-3.08-6.75-2.1-3.36-3.02-3.99-5.75-3.96-1.79 0.02-4.6 0.63-6.25 1.35-1.65 0.72-4.54 2.61-6.42 4.21zm-106.38 2.73c-1.46 2.84-3.56 9.33-4.68 14.42-1.11 5.09-2.29 13.86-2.62 19.5-0.49 8.36-1.14 11.45-3.53 16.75-1.61 3.58-2.91 7.18-2.9 8 0.02 0.83 0.94 2.96 2.03 4.75 1.24 2.01 4.01 4.2 7.25 5.74 4.14 1.96 6.83 2.49 12.75 2.49 5.44 0.01 8.23-0.47 10.18-1.74 1.47-0.96 4.79-4.22 7.37-7.24 2.58-3.02 5.48-7.07 6.44-9 0.96-1.92 2.31-5.3 3.01-7.5 0.7-2.2 1.61-6.48 2.02-9.5 0.4-3.02 0.33-8.42-0.17-12-0.5-3.57-2.16-9.2-3.7-12.5-1.54-3.3-4.34-7.75-6.22-9.88-1.89-2.13-5.12-4.72-7.18-5.75-2.06-1.03-5.66-2.05-8-2.27-2.34-0.22-5.41-0.19-6.82 0.08-1.88 0.34-3.28 1.86-5.23 5.65z"/>
		<path id="Path 1" fill-rule="evenodd" class="s1" d="m753.5 50.36c11.22 0.29 15.09 0.77 19.5 2.46 3.02 1.16 6.68 3.36 8.13 4.89 1.44 1.54 3.13 3.8 3.75 5.04 0.62 1.24 1.12 4.39 1.13 7 0.01 2.61-0.67 7.11-1.5 10-1.17 4.08-2.18 5.58-4.51 6.75-1.65 0.83-3.67 1.5-4.5 1.5-0.83 0-2.41-1.01-3.52-2.25-1.17-1.3-2.01-3.63-2-5.5 0.02-2.66-0.57-3.56-3.23-4.95-2.24-1.17-6.5-1.83-13.75-2.12-5.77-0.24-14.33 0.12-19 0.79-4.67 0.67-11.88 2.05-16 3.08-4.13 1.02-10.65 3.03-14.5 4.47-3.85 1.44-9.7 4.1-13 5.91-3.3 1.82-8.02 3.9-10.5 4.63-2.48 0.73-6.08 2.28-8 3.45-1.92 1.17-3.99 3.44-4.6 5.06-0.8 2.13-0.8 3.8 0 6.12 0.65 1.88 2.94 4.49 5.6 6.4 2.48 1.77 6.98 5.32 10 7.89 3.02 2.57 9.55 7.16 14.5 10.19 4.95 3.04 15.75 9.14 24 13.56 8.25 4.41 19.05 10.39 24 13.26 4.95 2.88 11.78 7.55 15.17 10.37 3.39 2.83 7.72 7.17 9.62 9.64 1.9 2.47 4.52 6.53 5.82 9 1.69 3.21 2.45 6.51 2.96 18.5l-9.29 7.59c-5.1 4.17-10.18 8.07-11.28 8.66-1.1 0.58-5.49 1.56-9.75 2.16-4.26 0.6-11.24 1.09-15.5 1.09-4.26 0-12.7-0.46-18.75-1.01-6.05-0.56-20.67-2.4-32.5-4.1-18.52-2.67-21.76-3.4-23.36-5.24-1.42-1.65-1.76-3.31-1.45-7.15 0.22-2.85 1.24-6.14 2.35-7.64 1.08-1.46 3.31-3.63 4.96-4.82 2.46-1.78 4.11-2.11 9.14-1.85 3.77 0.19 6.85 0.92 8 1.9 1.13 0.97 6.37 2.24 13.36 3.24 6.33 0.91 16.9 2.16 23.5 2.79 6.6 0.62 16.95 0.91 23 0.63 6.34-0.29 12.14-1.09 16.36-3.25l-5.18-5.84c-3.07-3.45-8.65-7.98-13.68-11.1-4.67-2.9-13.9-8.2-20.5-11.77-6.6-3.58-15.6-8.43-20-10.78-4.4-2.35-11.83-6.76-16.5-9.81-4.67-3.04-10.7-7.59-13.38-10.11-2.68-2.53-6.55-7.06-8.59-10.09-2.04-3.03-4.24-7.08-4.88-9-0.65-1.92-1.18-6.76-1.17-10.75 0.01-4.03 0.74-9.36 1.64-12 0.9-2.61 3.04-6.77 4.75-9.23 1.72-2.47 4.71-6.02 6.63-7.9 1.92-1.88 6.2-5.18 9.5-7.34 3.3-2.17 10.05-5.86 15-8.22 4.95-2.35 12.83-5.53 17.5-7.07 4.67-1.54 13.45-3.86 19.5-5.14 9.26-1.97 13.21-2.28 25-1.99zm-487.25 27.74c1.7-0.06 3.7 0.85 5.25 2.4 1.87 1.87 2.5 3.57 2.52 6.75 0.01 2.34-1.16 7.63-2.59 11.75-1.44 4.13-3.87 12.22-5.41 18-1.54 5.78-4.16 17.25-5.83 25.5-1.67 8.25-3.33 18.15-3.69 22-0.36 3.85-0.32 8.8 0.09 11 0.5 2.63 1.97 5.2 4.33 7.51 2.4 2.36 5.71 4.16 10.08 5.5 5.33 1.63 9.2 1.98 21.5 1.91 9.66-0.06 18.03-0.68 23.5-1.76 8.06-1.59 8.59-1.58 10.19 0.08 0.92 0.97 1.95 2.89 2.27 4.26 0.36 1.55-0.11 3.64-1.24 5.5-1.42 2.35-3.74 3.72-10.77 6.34-4.92 1.83-14.35 4.48-20.95 5.88-10.46 2.21-14.64 2.55-32.59 2.66-16.6 0.1-21.1-0.17-23.26-1.38-1.48-0.82-3.15-2.62-3.72-4-0.71-1.72-0.7-11.13 0.02-30.25 0.84-22.2 1.56-30.5 3.6-41.5 1.41-7.56 3.43-17.69 4.5-22.5 1.07-4.81 3.29-12.91 4.94-18 1.64-5.09 3.95-10.66 5.14-12.38 1.31-1.9 3.58-3.53 5.77-4.15 1.98-0.56 4.84-1.06 6.35-1.12zm112.92-0.1c8.83 0 9.93 0.2 10.83 2 0.55 1.1 1 2.68 1 3.5 0 0.88-3.38 3.16-8.25 5.55-4.54 2.23-9.28 5.04-10.53 6.25-1.26 1.21-2.77 3.78-3.38 5.7-0.8 2.55-0.77 11.64 0.1 33.5 0.66 16.5 1.62 33.38 2.13 37.5 0.52 4.13 1.5 9.86 3.43 18l5 0.98c2.75 0.54 6.57 2.02 8.5 3.29 1.98 1.3 3.61 3.26 3.75 4.51 0.14 1.22-0.99 4.51-2.5 7.32-1.51 2.8-3.54 5.84-4.52 6.75-1.64 1.54-2.09 1.51-6.5-0.35-4.08-1.73-6.61-1.97-18.48-1.75-11.57 0.21-14.42-0.04-18-1.6-2.34-1.02-5.05-2.71-6.03-3.75-1.14-1.22-1.68-3.11-1.5-5.3 0.18-2.23 1.14-4.06 2.78-5.32 1.89-1.46 4.8-2.06 21.5-3.08l-0.76-24.1c-0.42-13.25-1.71-32.2-2.88-42.1-1.88-15.98-1.96-18.59 0.64-28.44l-15.25-0.03c-13.6-0.03-15.32-0.22-15.88-1.78-0.36-0.98 0.24-3.28 1.37-5.25 1.3-2.27 3.9-4.47 7.38-6.26 4.75-2.44 7.15-2.89 20.38-3.83 8.25-0.59 15.19-1.26 15.42-1.49 0.23-0.23 4.84-0.42 10.25-0.42zm124.58 0.03c1.24-0.02 3.38 0.42 4.75 0.97 1.38 0.55 4.29 3.36 6.47 6.25 3.71 4.9 3.98 5.7 4 12 0.02 3.71-0.43 12.49-0.99 19.5-0.56 7.01-1.68 17.7-2.48 23.75-0.8 6.05-1.89 18.2-2.41 27-0.52 8.8-1.71 19.38-2.64 23.5-0.93 4.13-2.54 9.19-3.57 11.25-1.04 2.06-3.12 4.5-4.63 5.43-1.97 1.19-4.18 1.54-7.75 1.21-2.79-0.26-6.99-1.61-9.5-3.04-3.62-2.07-10.16-9.81-33.37-39.46-16.37-20.92-29.55-36.89-30.45-36.89-1.01 0-2.12 1.65-3.02 4.5-1.03 3.25-1.45 10.45-1.54 26-0.08 14.84 0.31 23.67 1.28 28.5 0.77 3.85 2 8.69 2.75 10.75 1.21 3.36 1.14 4.21-0.65 8.25-1.1 2.48-2.9 4.95-4 5.5-1.1 0.55-3.12 1-4.5 1-1.37 0-3.74-0.63-5.25-1.41-1.51-0.78-3.93-2.69-5.36-4.25-2.19-2.38-3.22-5.77-6.33-20.84-2.05-9.9-4.17-21.37-4.73-25.5-0.55-4.12-0.74-11.1-0.4-15.5 0.33-4.4 1.49-11.26 2.58-15.25 1.1-3.99 3.17-9.61 4.61-12.5 1.44-2.89 4.06-7.05 5.81-9.25 1.76-2.2 5.2-5.01 7.64-6.24 2.43-1.23 5.89-2.24 7.68-2.25 1.79 0 4.71 0.73 6.5 1.64 1.79 0.91 6.57 4.84 10.63 8.75 4.05 3.9 15.06 17 24.45 29.1 9.4 12.1 19.35 24.38 22.13 27.29 2.77 2.9 5.38 5.27 5.79 5.25 0.41-0.02 0.65-16.35 0.53-36.29-0.16-25.1 0.14-37.94 0.96-41.75 0.71-3.29 2.51-7.22 4.46-9.77 1.8-2.35 4.4-4.92 5.79-5.72 1.38-0.8 3.52-1.47 4.76-1.48zm41.25 0.59c1.92 0.29 4.85 1.31 9.5 4l-0.35 31.44c-0.28 25.71-0.03 33.45 1.34 42.44 0.92 6.05 2.88 14.05 4.34 17.78 1.47 3.73 4.13 8.79 5.92 11.25 1.79 2.46 5.16 5.47 7.5 6.7 3.36 1.77 5.93 2.24 12.25 2.25 6.7 0.02 8.73-0.39 12.46-2.48 2.45-1.37 6.62-5.2 9.27-8.5 2.64-3.3 6.6-9.6 8.8-14 2.2-4.4 4.96-11.6 6.14-16 1.82-6.81 2.14-10.83 2.18-27 0.03-16.12-0.3-20.44-2.16-28.5-1.21-5.22-2.2-10.06-2.19-10.75 0-0.69 1.1-2.37 2.45-3.75 2.1-2.13 3.39-2.51 8.75-2.54 4.61-0.03 6.89 0.44 8.52 1.75 1.79 1.45 2.6 4.07 4.24 13.79 1.2 7.15 2.01 16.44 1.99 23-0.01 6.05-0.42 17.98-0.9 26.5-0.73 13.05-1.36 17-3.94 25-1.68 5.23-4.76 12.35-6.84 15.84-2.07 3.49-6.13 8.78-9.02 11.75-2.89 2.98-7.16 6.6-9.5 8.06-2.34 1.46-6.73 3.56-9.75 4.67-4.4 1.62-7.99 2.02-18 2.04-10.48 0.02-13.39-0.32-18-2.13-3.02-1.19-7.73-3.64-10.45-5.44-2.73-1.81-6.79-5.76-9.03-8.79-2.26-3.05-5.54-9.51-7.36-14.5-1.8-4.95-4.39-14.4-5.75-21-1.42-6.87-2.88-18.63-3.42-27.5-0.52-8.52-1.41-23.04-1.97-32.25q-1.02-16.76-0.02-18.75c0.55-1.1 2.91-2.65 5.25-3.45 2.34-0.8 5.83-1.22 7.75-0.93zm67.25 151.46c0.41-0.04 2.44 0.6 8.25 2.93l0.86 62.75c0.82 59.96 0.77 62.93-1 67.11-1.22 2.86-3.07 5.06-5.36 6.38-2.85 1.64-3.92 1.81-5.75 0.88-1.24-0.62-3.48-3.72-4.98-6.88-2.5-5.26-2.74-6.77-2.75-17.75-0.01-6.6 0.32-13.69 1.48-19.5l-7.75 0.01c-4.26 0-13.37 0.7-20.25 1.55-6.87 0.85-14.98 1.81-18 2.14-3.02 0.32-9.1 0.05-13.5-0.62-4.4-0.66-8.67-1.4-9.5-1.64-1.27-0.36-1.61 2.02-2.23 15.32-0.4 8.66-1.07 21.08-1.5 27.62-0.74 11.43-0.86 11.9-3.27 12.8-1.37 0.51-4.75 0.79-12.5 0.32l-0.81-9.5c-0.45-5.23-0.55-18.05 0.36-47.5l-5.53 0.75c-3.03 0.41-6.98 1.39-8.77 2.17-2.66 1.16-3.61 1.19-5.25 0.15-1.1-0.7-2.83-3.48-3.85-6.17-1.61-4.27-1.67-5.27-0.5-7.81 0.74-1.59 2.81-4.18 4.6-5.75 2.93-2.56 3.96-2.84 17.75-2.82l0.73-9.76c0.41-5.37 1.08-20.51 2.27-57.52l2.5-1.9c1.55-1.18 4.02-1.88 6.5-1.84 2.2 0.03 4.71 0.61 5.57 1.28 0.87 0.67 2.05 2.12 2.63 3.22 0.76 1.45 0.66 3.23-0.36 6.5-0.97 3.09-1.18 6.22-0.68 10 0.4 3.02 0.75 15.4 0.84 49.5l6-0.33c3.3-0.18 10.39-0.96 15.75-1.75 5.36-0.78 14.48-1.42 20.25-1.42 5.77 0 11.4-0.45 12.5-1 1.29-0.65 3.15-0.66 5.25-0.06 1.79 0.52 4.82 1.09 10.25 1.56l1.13-13c0.62-7.15 1.64-16.49 2.25-20.75 0.62-4.26 1.12-11.01 1.12-15 0.01-3.99-0.63-9.5-1.4-12.25-0.78-2.75-1.73-5.9-2.1-7-0.58-1.67 0.02-2.27 3.66-3.67 2.38-0.92 4.68-1.71 5.09-1.75zm-352.75 16.38c6.6 0.16 13.35 0.83 15 1.49 1.65 0.65 4.02 2.17 5.28 3.37 1.25 1.2 2.25 3.31 2.23 4.68-0.02 1.38-1.05 4.27-2.28 6.44-1.88 3.32-3.1 4.2-7.73 5.58-3.02 0.9-9.77 2.4-15 3.35-5.22 0.95-12.2 2.19-15.5 2.76-3.3 0.58-7.35 1.88-9 2.9-1.65 1.02-3.56 2.78-4.25 3.91-0.69 1.13-1.7 4.31-2.25 7.06-0.68 3.39-0.66 7.34 0.05 12.25 0.58 3.99 1.68 8.6 2.45 10.25 0.79 1.7 2.83 3.61 4.7 4.41 3.1 1.33 3.75 1.22 10.8-1.89 4.13-1.82 11.78-4.8 17-6.61 6.07-2.11 11.49-3.33 15-3.37 3.33-0.03 6.39 0.54 7.75 1.45 1.62 1.09 2.25 2.49 2.25 5.01 0 1.93-0.68 5.08-3 10.5l-17.25 4.05c-9.49 2.22-21.53 5.46-26.75 7.19-6.07 2.02-10.72 4.26-12.88 6.21-3.22 2.9-3.36 3.31-2.91 8.55 0.27 3.1 1.52 7.45 2.88 9.97 1.51 2.8 3.9 5.31 6.41 6.73 3.03 1.72 5.58 2.27 10.5 2.26 3.57 0 12.57-0.95 20-2.1 7.58-1.18 19.86-2.23 42.5-2.71l0.65-19.33c0.48-14.21 1.35-23.16 3.28-33.82 1.45-7.98 4.24-21.02 6.2-29 1.96-7.98 4.87-17.31 6.47-20.75 2.06-4.45 3.69-6.57 5.65-7.36 1.51-0.62 4.55-1.37 6.75-1.67 3.39-0.47 4.42-0.15 6.75 2.11 2.15 2.09 2.75 3.59 2.74 6.92 0 2.34-0.85 6.95-1.89 10.25-1.03 3.3-2.56 7.58-3.39 9.5-0.84 1.93-3.12 10.7-5.06 19.5-1.95 8.8-4.29 19.6-5.2 24-0.92 4.4-1.73 12.27-1.81 17.5-0.13 8.67 0.08 9.8 2.36 12.94 1.43 1.98 4.64 4.42 7.5 5.71 2.75 1.24 8.38 2.79 12.5 3.43 4.51 0.7 11.69 0.93 18 0.56 5.77-0.34 14.32-1.33 27.5-3.8l2.25 2.58c1.24 1.42 2.25 3.26 2.25 4.08 0 0.83-0.68 2.85-1.5 4.5-0.98 1.97-3.14 3.71-6.25 5.07-2.61 1.15-8.35 3.12-12.75 4.4-4.4 1.27-12.05 3.11-17 4.08-6.68 1.31-14.33 1.78-50.36 1.95l-5.64-5.43-13.5 2.41c-7.43 1.33-17.32 2.97-22 3.65-5.1 0.74-17.31 1.16-30.5 1.05-12.1-0.09-23.69-0.63-25.75-1.18-2.51-0.67-4.88-2.4-10.6-9.5l-0.33-18.1c-0.22-12.31-0.71-18.55-1.53-19.5-1.03-1.19-2.16-1.2-7.5-0.06-5.51 1.17-7.03 1.13-12.29-0.32-3.3-0.9-7.01-2.29-8.25-3.08-2.17-1.39-2.43-1.17-7.25 6.06-2.75 4.13-9.39 12.05-14.75 17.62-5.36 5.56-12.45 12.15-15.75 14.65-3.3 2.49-9.38 6.13-13.5 8.09-6.83 3.24-8.3 3.56-16.5 3.6-8.04 0.03-9.59-0.27-14.5-2.86-3.03-1.59-8.35-5.64-11.84-9-3.49-3.35-8.3-9.02-10.68-12.6-2.39-3.57-5.58-9.65-7.09-13.5-2.32-5.93-2.74-8.53-2.77-17-0.03-7.84 0.46-11.51 2.27-17 1.27-3.85 3.22-8.8 4.33-11 1.11-2.2 3.94-6.7 6.28-10 2.34-3.3 8.25-9.85 13.13-14.55 4.88-4.7 12.47-10.97 16.87-13.94 4.4-2.96 12.28-7.39 17.5-9.84 8.47-3.97 10.02-4.39 14.25-3.81 3.41 0.46 5.45 1.42 7.22 3.39 1.36 1.51 2.48 3.31 2.5 4 0.02 0.69-5.26 4.22-11.72 7.86-6.46 3.64-16.03 9.44-21.25 12.9-5.46 3.62-12.69 9.62-17.01 14.14-4.56 4.77-8.93 10.6-11.15 14.85-2.01 3.85-4.37 9.48-5.26 12.5-0.89 3.02-1.65 9.1-1.69 13.5-0.04 4.4 0.4 9.8 0.98 12 0.58 2.2 2.53 6.22 4.34 8.92 1.81 2.71 5.32 6.45 7.79 8.3 2.47 1.86 6.97 4.3 10 5.43 4.36 1.62 6.95 1.94 12.5 1.52 5.18-0.39 8.69-1.38 13.5-3.8 4.04-2.03 9.53-6.18 14.5-10.96 4.4-4.23 10.54-11.23 13.65-15.55 3.11-4.32 6.6-9.55 9.85-15.36l-4.25-1.1c-2.34-0.6-7.85-1.76-12.25-2.56-4.4-0.81-16.42-1.78-26.71-2.15-14.52-0.54-19.08-1.03-20.35-2.19-1.05-0.96-1.44-2.4-1.1-4 0.36-1.63 1.86-3.14 4.35-4.34 2.1-1.02 8.98-2.52 15.31-3.35 8.04-1.05 17.07-1.37 30-1.07 10.88 0.25 19.63 0.9 21.25 1.59 1.51 0.64 3.41 2.18 4.22 3.42 0.81 1.24 1.83 5.07 2.25 8.51 0.57 4.57 1.19 6.26 2.28 6.24 0.82-0.01 4.43 0.75 8 1.69 4.91 1.29 7.48 1.47 14.5-0.19l-0.04-8.5c-0.03-4.67-0.43-16.37-0.91-26-0.67-13.78-0.57-18.35 0.48-21.5 0.74-2.2 2.95-5.74 4.91-7.87 1.96-2.13 5.13-4.67 7.06-5.65 1.93-0.98 6.2-2.49 9.5-3.36 3.3-0.87 10.72-2.01 16.5-2.53 5.78-0.51 15.9-0.8 22.5-0.63zm178.75 1.64c1.7-0.06 3.7 0.85 5.25 2.4 1.98 1.98 2.49 3.5 2.47 7.25-0.01 2.61-1.15 7.9-2.54 11.75-1.38 3.85-3.57 10.83-4.86 15.5-1.29 4.68-3.97 16.26-5.96 25.75-2.3 11-3.7 20.6-3.86 26.5-0.21 7.74 0.08 9.82 1.76 12.75q2.01 3.5 7.5 6.23c3.02 1.49 8.87 3.24 12.99 3.87 4.48 0.69 11.72 0.9 18 0.52 5.77-0.34 14.32-1.31 27.5-3.65l2.25 2.51c1.24 1.39 2.25 3.2 2.25 4.02 0 0.83-0.68 2.85-1.5 4.5-0.93 1.86-3.11 3.71-5.75 4.87-2.34 1.03-7.4 2.84-11.25 4.03-3.85 1.19-11.5 3.08-17 4.19-6.86 1.39-15.81 2.2-28.5 2.57-14.13 0.42-19.42 0.23-22.4-0.81-2.15-0.74-4.72-2.47-5.71-3.85-1.69-2.34-1.75-4.23-0.9-29.5 0.72-21.51 1.43-30.05 3.5-42 1.43-8.25 3.49-18.82 4.57-23.5 1.09-4.67 3.31-12.77 4.94-18 1.62-5.23 3.93-10.91 5.12-12.63 1.32-1.89 3.6-3.53 5.78-4.15 1.98-0.56 4.84-1.06 6.35-1.12zm256.75 0.22c5.76 0.25 8.77 0.96 13 3.1 3.02 1.52 7.3 4.39 9.5 6.37 2.2 1.97 6.21 6.32 8.92 9.65 2.7 3.33 7.04 10.56 9.65 16.06 2.6 5.5 5.54 13.15 6.53 17 1.32 5.11 1.82 10.92 1.85 21.5 0.05 14.43 0.03 14.53-3.3 21.5-2.13 4.44-5.6 9.32-9.5 13.34-3.38 3.49-9.07 8.27-12.65 10.64-3.58 2.36-9.31 5.69-12.75 7.4-3.44 1.72-10.19 4.26-15 5.65-4.81 1.39-12.35 2.79-16.75 3.11-4.66 0.35-9.67 0.14-12-0.5-2.2-0.6-5.75-2.56-7.89-4.37-2.14-1.8-4.95-5.07-6.23-7.27-1.28-2.2-3.24-6.48-4.36-9.5-1.12-3.02-2.71-9.1-3.54-13.5-0.83-4.4-1.51-13.4-1.51-20 0-6.82 0.7-15.67 1.61-20.5 0.88-4.67 2.81-12.1 4.28-16.5 1.47-4.4 4.69-11.55 7.16-15.89 2.46-4.34 6.96-10.46 9.98-13.6 3.02-3.14 7.52-6.76 10-8.03 2.48-1.27 6.98-3.14 10-4.15 3.92-1.31 7.66-1.75 13-1.51zm-19.3 39.01c-1.46 2.84-3.56 9.33-4.68 14.42-1.11 5.09-2.29 13.86-2.62 19.5-0.49 8.36-1.14 11.45-3.53 16.75-1.61 3.58-2.91 7.18-2.9 8 0.02 0.83 0.94 2.96 2.03 4.75 1.24 2.01 4.01 4.2 7.25 5.74 4.14 1.96 6.83 2.49 12.75 2.49 5.44 0.01 8.23-0.47 10.18-1.74 1.47-0.96 4.79-4.22 7.37-7.24 2.58-3.02 5.48-7.07 6.44-9 0.96-1.92 2.31-5.3 3.01-7.5 0.7-2.2 1.61-6.48 2.02-9.5 0.4-3.02 0.33-8.42-0.17-12-0.5-3.57-2.16-9.2-3.7-12.5-1.54-3.3-4.34-7.75-6.22-9.88-1.89-2.13-5.12-4.72-7.18-5.75-2.06-1.03-5.66-2.05-8-2.27-2.34-0.22-5.41-0.19-6.82 0.08-1.88 0.34-3.28 1.86-5.23 5.65zm128.32-39.06c5.54 0.19 7.33 0.76 11.89 3.73 3.15 2.05 7.39 6.2 10.22 10 2.66 3.58 5.53 8.52 6.37 11 0.84 2.48 1.52 6.86 1.51 9.75 0 2.94-0.97 7.78-2.19 11-1.22 3.24-4.01 7.71-6.38 10.25-2.32 2.48-10.12 9-17.34 14.5-7.21 5.5-13.12 10.34-13.11 10.75 0.01 0.41 8.56 6.83 19.01 14.25 10.45 7.43 19.64 14.51 20.41 15.75 0.78 1.24 2.02 4.15 2.75 6.48 1.28 4.03 1.22 4.35-1.16 6.84-1.37 1.44-3.74 3.25-5.25 4.03-1.51 0.77-3.65 1.4-4.75 1.4-1.1 0-3.69-0.86-5.75-1.91-2.06-1.05-9.17-7.01-15.79-13.25-6.62-6.24-14.5-13.4-17.5-15.92-3-2.52-7.21-5.89-13.24-10.42l1.53 43-4.87 2c-2.68 1.1-5.21 2.11-5.63 2.25-0.41 0.14-2.54-2.11-8.7-10.25l-0.02-37.75c-0.02-30.02 0.28-39.34 1.51-45.5 0.84-4.26 3.19-11.12 5.22-15.25 2.02-4.12 6-9.98 8.82-13 2.83-3.02 7.35-6.71 10.03-8.19 2.69-1.48 7.37-3.39 10.39-4.24 3.03-0.85 8.43-1.43 12.02-1.3zm-21.94 36.33c-1.88 1.59-4.01 4.36-4.75 6.15-0.73 1.79-1.33 6.18-1.33 9.75 0 3.58 0.23 7.18 0.5 8 0.27 0.83 1.4 1.5 2.5 1.5 1.1 0 4.14-0.8 6.75-1.77 2.61-0.98 6.55-3.17 8.75-4.87 2.2-1.7 5.28-4.84 6.83-6.98 2.11-2.89 2.69-4.58 2.25-6.63-0.32-1.51-1.7-4.55-3.08-6.75-2.1-3.36-3.02-3.99-5.75-3.96-1.79 0.02-4.6 0.63-6.25 1.35-1.65 0.72-4.54 2.61-6.42 4.21zm176.67-36.57c1.24-0.02 3.42 0.53 4.85 1.22 1.42 0.69 4.35 3.61 10.4 11.75l-1.05 18.75c-0.58 10.31-1.73 23.02-2.56 28.25-0.83 5.23-1.91 16.93-2.4 26-0.49 9.08-1.38 18.98-1.97 22-0.59 3.02-1.55 7.3-2.14 9.5-0.58 2.2-1.81 5.52-2.72 7.39-0.91 1.86-2.9 4-4.41 4.75-1.51 0.75-4.44 1.37-6.5 1.38-2.23 0.01-6.18-1.21-9.75-3.03-5.13-2.6-7.13-4.52-13.77-13.27-4.27-5.62-17.09-22.14-28.5-36.72-11.4-14.57-21.41-26.5-22.23-26.5-0.83 0-2.12 1.76-2.93 4-1.01 2.8-1.56 10-1.83 24-0.23 11.72 0.06 22.69 0.69 26.5 0.6 3.58 1.87 9.53 2.83 13.23 1.73 6.67 1.72 6.76-0.51 11.25-1.62 3.26-3.02 4.69-5 5.14-1.51 0.34-4.1 0.34-5.75 0.01-1.65-0.33-4.68-2.29-6.74-4.36-3.67-3.71-3.81-4.14-8.33-25.77-4.37-20.96-4.56-22.59-4.12-34.5 0.34-9.13 1.07-14.39 2.69-19.5 1.23-3.85 3.3-9.14 4.61-11.75 1.32-2.61 4.3-6.84 6.64-9.4 2.34-2.55 5.71-5.25 7.5-6 1.79-0.74 4.94-1.36 7-1.37 2.48-0.02 5.28 0.97 8.25 2.9 2.48 1.61 7.43 6.01 11.01 9.77 3.59 3.77 14.22 16.75 23.64 28.85 9.42 12.1 18.86 23.9 20.99 26.22 2.12 2.32 4.42 4.23 5.11 4.25 0.98 0.02 1.2-8.14 1-38.22-0.22-34.07-0.06-38.8 1.48-43.25 0.95-2.75 3.2-6.4 5-8.12 1.8-1.71 4.17-3.61 5.27-4.22 1.1-0.6 3.01-1.11 4.25-1.13z"/>
		<path id="Path 2" fill-rule="evenodd" class="s0" d="m802 268.03c1.49-0.06 3.67 1.03 5.39 2.68 1.6 1.54 3.95 5.04 5.24 7.79 1.29 2.75 2.35 5.45 2.36 6 0 0.55-1.34 3.03-2.98 5.5-1.65 2.48-5.58 7.1-8.75 10.28-3.17 3.17-8.24 7.09-11.26 8.7-3.02 1.62-8.12 3.52-11.31 4.23-5.04 1.12-5.94 1.09-6.74-0.21-0.5-0.82-0.93-6-0.94-11.5-0.01-8.25 0.35-10.7 2.09-14 1.15-2.2 3.52-5.51 5.25-7.35 1.73-1.84 5.17-4.73 7.65-6.42 2.48-1.69 6.08-3.64 8-4.33 1.92-0.69 4.63-1.31 6-1.37zm-19.92 16.57c-1.88 1.59-4.01 4.36-4.75 6.15-0.73 1.79-1.33 6.18-1.33 9.75 0 3.58 0.23 7.18 0.5 8 0.27 0.83 1.4 1.5 2.5 1.5 1.1 0 4.14-0.8 6.75-1.77 2.61-0.98 6.55-3.17 8.75-4.87 2.2-1.7 5.28-4.84 6.83-6.98 2.11-2.89 2.69-4.58 2.25-6.63-0.32-1.51-1.7-4.55-3.08-6.75-2.1-3.36-3.02-3.99-5.75-3.96-1.79 0.02-4.6 0.63-6.25 1.35-1.65 0.72-4.54 2.61-6.42 4.21zm-90.08-13.56c4.72-0.01 7.87 0.61 11.5 2.29 2.77 1.29 6.7 4.3 8.81 6.74 2.1 2.44 5.09 7.13 6.65 10.43 1.56 3.3 3.33 8.36 3.93 11.25 0.61 2.89 1.1 7.39 1.1 10-0.01 2.61-0.72 7.68-1.57 11.25-0.85 3.58-3.08 9.43-4.95 13-1.88 3.58-6.49 9.88-10.25 14-3.81 4.18-8.8 8.49-11.27 9.74-3.33 1.67-6.21 2.23-11.45 2.24-3.85 0-8.58-0.42-10.5-0.94-1.92-0.53-5.05-1.99-6.95-3.25-1.9-1.26-4.5-3.86-5.78-5.79-1.36-2.05-2.31-4.95-2.29-7 0.03-1.92 1.09-5.3 2.37-7.5 1.7-2.94 2.52-6.39 3.07-13 0.42-4.95 1.41-12.82 2.22-17.5 0.8-4.67 2.17-10.97 3.03-14 0.87-3.02 2.61-7.52 3.86-10 1.26-2.47 3.56-5.68 5.13-7.12 1.56-1.44 3.74-3.11 4.84-3.72 1.1-0.6 4.92-1.11 8.5-1.12zm-16.3 16.29c-1.46 2.84-3.56 9.33-4.68 14.42-1.11 5.09-2.29 13.86-2.62 19.5-0.49 8.36-1.14 11.45-3.53 16.75-1.61 3.58-2.91 7.18-2.9 8 0.02 0.83 0.94 2.96 2.03 4.75 1.24 2.01 4.01 4.2 7.25 5.74 4.14 1.96 6.83 2.49 12.75 2.49 5.44 0.01 8.23-0.47 10.18-1.74 1.47-0.96 4.79-4.21 7.37-7.24 2.58-3.02 5.48-7.07 6.44-9 0.96-1.92 2.31-5.3 3.01-7.5 0.7-2.2 1.61-6.47 2.02-9.5 0.4-3.02 0.33-8.42-0.17-12-0.5-3.57-2.16-9.2-3.7-12.5-1.54-3.3-4.34-7.75-6.22-9.88-1.89-2.13-5.12-4.72-7.18-5.75-2.06-1.03-5.66-2.05-8-2.27-2.34-0.22-5.41-0.19-6.82 0.08-1.88 0.34-3.28 1.86-5.23 5.65z"/>
	</g>
</svg>